<?xml version="1.0" standalone="no"?>
<!DOCTYPE svg PUBLIC "-//W3C//DTD SVG 20010904//EN"
 "http://www.w3.org/TR/2001/REC-SVG-20010904/DTD/svg10.dtd">
<svg version="1.0" xmlns="http://www.w3.org/2000/svg"
 width="100.000000pt" height="100.000000pt" viewBox="0 0 100.000000 100.000000"
 preserveAspectRatio="xMidYMid meet">
<metadata>
Created by potrace 1.14, written by Peter Selinger 2001-2017
</metadata>
<g transform="translate(0.000000,100.000000) scale(0.100000,-0.100000)"
fill="#000000" stroke="none">
<path d="M321 908 c-110 -31 -190 -124 -198 -231 -5 -56 -2 -68 29 -127 18
-36 40 -65 48 -65 9 0 46 64 95 163 47 95 98 183 123 212 24 28 37 50 30 51
-77 6 -98 5 -127 -3z"/>
<path d="M557 913 c-15 -4 -11 -12 25 -52 24 -26 61 -85 83 -131 80 -165 122
-244 132 -247 6 -2 25 20 43 49 47 76 53 157 16 232 -27 56 -72 99 -136 130
-35 17 -129 28 -163 19z"/>
<path d="M447 846 c-38 -39 -73 -101 -138 -241 -13 -27 -38 -76 -57 -108 l-33
-57 32 -48 c40 -58 193 -257 228 -295 25 -27 26 -27 41 -8 48 60 229 300 244
323 17 27 17 28 -23 97 -23 38 -41 72 -41 75 0 3 -23 53 -51 112 -49 102 -119
194 -148 194 -6 0 -31 -20 -54 -44z"/>
<path d="M75 465 c-36 -13 -74 -48 -75 -68 0 -22 23 -47 44 -47 25 0 91 40
118 72 13 15 15 24 8 39 -12 22 -40 24 -95 4z"/>
<path d="M831 461 c-12 -22 4 -45 63 -85 59 -39 95 -34 103 17 4 25 -38 63
-83 76 -55 15 -72 14 -83 -8z"/>
<path d="M168 385 c-40 -37 -90 -65 -118 -65 -23 -1 -21 -5 29 -50 29 -27 83
-65 120 -84 67 -35 242 -108 247 -103 1 1 -33 47 -77 102 -44 55 -99 128 -122
162 -23 34 -44 63 -47 63 -3 0 -17 -11 -32 -25z"/>
<path d="M774 373 c-89 -122 -114 -155 -167 -220 -32 -40 -56 -73 -53 -73 16
0 150 56 220 91 82 42 147 88 178 124 15 19 15 20 -23 31 -22 7 -59 28 -84 48
l-44 36 -27 -37z"/>
</g>
</svg>
